<svg width="60" height="60" viewBox="0 0 60 60" fill="none" xmlns="http://www.w3.org/2000/svg">
<circle cx="30" cy="30" r="30" fill="#1D1D1D"/>
<path fill-rule="evenodd" clip-rule="evenodd" d="M30.8115 43.9172C27.9656 43.9172 26.643 43.5 24.3441 41.8308C22.8899 43.7086 18.2851 45.1761 18.0843 42.6654C18.0843 40.7807 17.6688 39.1881 17.1979 37.4495C16.6371 35.3074 16 32.922 16 29.4656C16 21.2105 22.7445 15 30.7354 15C38.7332 15 44.9999 21.5165 44.9999 29.5421C45.0267 37.4436 38.6788 43.8751 30.8115 43.9172ZM30.9293 22.1354C27.0377 21.9337 24.0047 24.6391 23.3331 28.8814C22.7791 32.3935 23.7624 36.6706 24.6003 36.8931C25.0019 36.9905 26.0129 36.1698 26.643 35.537C27.6849 36.2599 28.8983 36.6941 30.1607 36.7957C34.193 36.9905 37.6385 33.9074 37.9092 29.862C38.0668 25.808 34.9622 22.3744 30.9293 22.1424V22.1354Z" fill="white"/>
</svg>
