<svg width="68" height="68" viewBox="0 0 68 68" fill="none" xmlns="http://www.w3.org/2000/svg">
<g clip-path="url(#clip0_1219_11314)">
<path d="M29.75 45.5047L19.125 34.8776L22.1276 31.875L29.75 39.4953L45.8681 23.375L48.875 26.3819L29.75 45.5047Z" fill="#DBF48C"/>
<path d="M34 4.25C28.116 4.25 22.3642 5.99481 17.4718 9.26378C12.5794 12.5328 8.7663 17.1791 6.5146 22.6152C4.26289 28.0513 3.67374 34.033 4.82165 39.8039C5.96956 45.5749 8.80297 50.8758 12.9636 55.0364C17.1242 59.197 22.4251 62.0304 28.1961 63.1784C33.967 64.3263 39.9487 63.7371 45.3848 61.4854C50.8209 59.2337 55.4673 55.4206 58.7362 50.5282C62.0052 45.6359 63.75 39.884 63.75 34C63.75 26.1098 60.6156 18.5428 55.0364 12.9636C49.4572 7.38437 41.8902 4.25 34 4.25ZM34 59.5C28.9566 59.5 24.0264 58.0044 19.833 55.2025C15.6395 52.4005 12.3711 48.4179 10.4411 43.7584C8.51105 39.0989 8.00607 33.9717 8.98999 29.0252C9.97391 24.0787 12.4026 19.535 15.9688 15.9688C19.535 12.4025 24.0787 9.9739 29.0252 8.98997C33.9717 8.00605 39.0989 8.51104 43.7584 10.4411C48.418 12.3711 52.4005 15.6395 55.2025 19.833C58.0045 24.0264 59.5 28.9566 59.5 34C59.5 40.763 56.8134 47.249 52.0312 52.0312C47.2491 56.8134 40.763 59.5 34 59.5Z" fill="#DBF48C"/>
</g>
<defs>
<clipPath id="clip0_1219_11314">
<rect width="68" height="68" fill="white"/>
</clipPath>
</defs>
</svg>
