<svg width="68" height="69" viewBox="0 0 68 69" fill="none" xmlns="http://www.w3.org/2000/svg">
<g clip-path="url(#clip0_1219_11271)">
<path d="M31.2545 34.1701C30.2855 32.0505 29.75 29.6312 29.75 26.9531C29.75 24.2751 30.2855 21.5862 31.2545 19.0634C32.2214 16.5384 33.6217 14.1773 35.3536 12.1526C37.0834 10.1301 39.1446 8.43741 41.4311 7.25578C43.7197 6.06769 46.2357 5.39062 48.875 5.39062C51.5143 5.39062 54.0303 5.934 56.3189 6.91509C58.6075 7.89834 60.6666 9.31931 62.3964 11.0745C64.124 12.8297 65.5286 14.9213 66.4955 17.2435C67.4666 19.5637 68 22.1188 68 24.7969C68 27.4749 67.4645 30.0301 66.4955 32.3502C65.5286 34.6725 64.1283 36.7641 62.3964 38.5192C60.6688 40.2744 36.2886 62.6261 34 63.6094C31.7114 62.6261 7.33125 40.2744 5.6015 38.5192C3.87175 36.7641 2.47137 34.6725 1.50238 32.3502C0.5355 30.0301 0 27.4749 0 24.7969C0 22.1188 0.5355 19.5637 1.50238 17.2435C2.47137 14.9213 3.86962 12.8297 5.6015 11.0745C7.33125 9.31931 9.3925 7.89834 11.6811 6.91509C13.9676 5.934 16.4836 5.39062 19.125 5.39062C21.7664 5.39062 24.2824 6.06769 26.5689 7.25147C28.8575 8.43741 30.9166 10.1279 32.6485 12.1505C34.3783 14.1752 35.7786 16.5363 36.7476 19.0613C37.7145 21.5862 38.25 24.2751 38.25 26.9531C38.25 29.6312 37.7145 32.0505 36.7476 34.1701C35.7786 36.2897 34.3825 38.1117 32.6485 39.5995" fill="#DBF48C"/>
</g>
<defs>
<clipPath id="clip0_1219_11271">
<rect width="68" height="69" fill="white"/>
</clipPath>
</defs>
</svg>
