<svg width="68" height="68" viewBox="0 0 68 68" fill="none" xmlns="http://www.w3.org/2000/svg">
<g clip-path="url(#clip0_1219_11248)">
<path d="M61.2 15.3002H47.6V8.5002L40.8 1.7002H27.2L20.4 8.5002V15.3002H6.8C3.06 15.3002 0 18.3602 0 22.1002V59.5002C0 63.2402 3.06 66.3002 6.8 66.3002H61.2C64.94 66.3002 68 63.2402 68 59.5002V22.1002C68 18.3602 64.94 15.3002 61.2 15.3002ZM27.2 8.5002H40.8V15.3002H27.2V8.5002ZM28.9 54.4002L17 42.5002L21.76 37.7402L28.9 44.8802L46.58 27.2002L51.34 31.9602L28.9 54.4002Z" fill="#DBF48C"/>
</g>
<defs>
<clipPath id="clip0_1219_11248">
<rect width="68" height="68" fill="white"/>
</clipPath>
</defs>
</svg>
