<svg width="134" height="43" viewBox="0 0 134 43" fill="none" xmlns="http://www.w3.org/2000/svg">
<path d="M133.228 25.4142H121.87V42.9997H114.163V25.4142H102.805V18.9785H133.228V25.4142Z" fill="#1D1D1D"/>
<path d="M91.6149 18.9785H99.322V42.9997H91.6149V34.207H74.5587V42.9997H66.8516V18.9785H74.5587V27.7713H91.6149V18.9785Z" fill="#1D1D1D"/>
<path d="M46.3524 25.6807L41.7745 33.0182H50.911L46.3524 25.6807ZM35.5547 42.9997H26.7852L41.4461 18.9785H51.2394L65.9197 42.9997H57.1501L54.9288 39.4334H37.776L35.5547 42.9997Z" fill="#1D1D1D"/>
<path d="M21.5375 18.9375C22.7222 18.9375 23.8361 19.1766 24.8792 19.6549C25.9351 20.1331 26.8494 20.789 27.6221 21.6225C28.4076 22.4423 29.0257 23.4124 29.4764 24.5329C29.9271 25.6397 30.1525 26.8216 30.1525 28.0787C30.1525 29.3494 29.9271 30.5382 29.4764 31.645C29.0257 32.7518 28.4076 33.7219 27.6221 34.5554C26.8494 35.3752 25.9351 36.0243 24.8792 36.5025C23.8361 36.9807 22.7222 37.2199 21.5375 37.2199H7.70714V42.9997H0V18.9375H21.5375ZM22.484 28.0787C22.484 27.7234 22.4196 27.3955 22.2908 27.0949C22.1621 26.7806 21.9882 26.5073 21.7693 26.275C21.5504 26.0428 21.2928 25.8583 20.9967 25.7217C20.7133 25.585 20.4043 25.5167 20.0695 25.5167H7.70714V30.6612H20.0695C20.4043 30.6612 20.7133 30.5928 20.9967 30.4562C21.2928 30.3196 21.5504 30.1351 21.7693 29.9028C21.9882 29.6705 22.1621 29.3973 22.2908 29.083C22.4196 28.7687 22.484 28.4339 22.484 28.0787Z" fill="#1D1D1D"/>
<path d="M119.731 13.1697C120.601 13.1697 121.47 13.1202 122.339 13.021C123.218 12.912 124.009 12.7087 124.713 12.4113C125.416 12.1139 125.987 11.6925 126.427 11.1472C126.876 10.592 127.11 9.86331 127.13 8.96111C127.13 8.37617 127.023 7.86558 126.808 7.42935C126.603 6.99312 126.324 6.62134 125.973 6.31399C125.621 5.99674 125.206 5.73896 124.727 5.54068C124.249 5.34239 123.736 5.18376 123.189 5.06479C122.642 4.94582 122.071 4.86651 121.475 4.82685C120.889 4.77728 120.308 4.74753 119.731 4.73762C119.155 4.73762 118.569 4.76241 117.973 4.81198C117.387 4.86155 116.821 4.94582 116.274 5.06479C115.737 5.18376 115.229 5.34239 114.75 5.54068C114.272 5.73896 113.852 5.99674 113.49 6.31399C113.139 6.62134 112.86 6.99312 112.655 7.42935C112.45 7.86558 112.343 8.37617 112.333 8.96111C112.352 9.55597 112.465 10.0765 112.67 10.5226C112.885 10.9588 113.168 11.3356 113.52 11.6528C113.871 11.9602 114.281 12.213 114.75 12.4113C115.229 12.6096 115.742 12.7632 116.289 12.8723C116.836 12.9814 117.402 13.0607 117.988 13.1102C118.574 13.1499 119.155 13.1697 119.731 13.1697ZM119.731 13.1846C119.751 13.1846 119.756 13.1846 119.746 13.1846C119.746 13.1747 119.741 13.1697 119.731 13.1697C119.722 13.1697 119.717 13.1747 119.717 13.1846C119.717 13.1846 119.722 13.1846 119.731 13.1846ZM119.731 0.00849866C120.777 -0.0113309 121.826 0.00354009 122.881 0.0531116C123.946 0.102684 124.967 0.226613 125.943 0.424899C126.93 0.623185 127.853 0.915657 128.712 1.30232C129.572 1.68897 130.319 2.21939 130.954 2.89356C131.589 3.55782 132.087 4.38566 132.448 5.37709C132.819 6.36852 133 7.5632 132.99 8.96111C133 10.3194 132.819 11.4893 132.448 12.4708C132.087 13.4523 131.589 14.2752 130.954 14.9394C130.319 15.6037 129.572 16.1391 128.712 16.5456C127.853 16.9421 126.93 17.2445 125.943 17.4527C124.967 17.6609 123.946 17.7898 122.881 17.8394C121.826 17.8989 120.777 17.9187 119.731 17.8989C118.696 17.9187 117.646 17.8989 116.582 17.8394C115.517 17.7898 114.491 17.6609 113.505 17.4527C112.528 17.2445 111.61 16.9421 110.751 16.5456C109.901 16.1391 109.154 15.6037 108.509 14.9394C107.874 14.2752 107.376 13.4523 107.015 12.4708C106.653 11.4893 106.473 10.3194 106.473 8.96111C106.473 7.5632 106.653 6.36852 107.015 5.37709C107.376 4.38566 107.874 3.55782 108.509 2.89356C109.154 2.21939 109.901 1.68897 110.751 1.30232C111.61 0.915657 112.528 0.623185 113.505 0.424899C114.491 0.226613 115.517 0.102684 116.582 0.0531116C117.646 0.00354009 118.696 -0.0113309 119.731 0.00849866Z" fill="#1D1D1D"/>
<path d="M104.03 0.186523V17.6159H98.1844V4.85616H85.2479V17.6159H79.4023V0.186523H104.03Z" fill="#1D1D1D"/>
<path d="M70.7729 0.157227C71.6715 0.157227 72.5163 0.330727 73.3074 0.677727C74.1083 1.02473 74.8018 1.50061 75.3878 2.10539C75.9836 2.70024 76.4524 3.40416 76.7943 4.21713C77.1361 5.02019 77.3071 5.87778 77.3071 6.78989C77.3071 7.71192 77.1361 8.57447 76.7943 9.37753C76.4524 10.1806 75.9836 10.8845 75.3878 11.4893C74.8018 12.0841 74.1083 12.5551 73.3074 12.9021C72.5163 13.2491 71.6715 13.4226 70.7729 13.4226H60.2831V17.6163H54.4375V0.157227H70.7729ZM71.4908 6.78989C71.4908 6.53212 71.4419 6.29418 71.3443 6.07606C71.2466 5.84803 71.1147 5.64975 70.9487 5.48121C70.7827 5.31266 70.5873 5.17882 70.3627 5.07968C70.1478 4.98053 69.9134 4.93096 69.6595 4.93096H60.2831V8.6637H69.6595C69.9134 8.6637 70.1478 8.61412 70.3627 8.51498C70.5873 8.41584 70.7827 8.282 70.9487 8.11345C71.1147 7.94491 71.2466 7.74662 71.3443 7.51859C71.4419 7.29057 71.4908 7.04767 71.4908 6.78989Z" fill="#1D1D1D"/>
<path d="M38.5674 13.1697C39.4366 13.1697 40.3059 13.1202 41.1752 13.021C42.0542 12.912 42.8453 12.7087 43.5486 12.4113C44.2518 12.1139 44.8232 11.6925 45.2627 11.1472C45.712 10.592 45.9464 9.86331 45.9659 8.96111C45.9659 8.37617 45.8585 7.86558 45.6436 7.42935C45.4385 6.99312 45.1601 6.62134 44.8085 6.31399C44.4569 5.99674 44.0418 5.73896 43.5632 5.54068C43.0846 5.34239 42.5719 5.18376 42.0249 5.06479C41.478 4.94582 40.9066 4.86651 40.3108 4.82685C39.7248 4.77728 39.1436 4.74753 38.5674 4.73762C37.9911 4.73762 37.4051 4.76241 36.8093 4.81198C36.2233 4.86155 35.6568 4.94582 35.1098 5.06479C34.5726 5.18376 34.0648 5.34239 33.5862 5.54068C33.1076 5.73896 32.6876 5.99674 32.3262 6.31399C31.9746 6.62134 31.6962 6.99312 31.4911 7.42935C31.286 7.86558 31.1786 8.37617 31.1688 8.96111C31.1884 9.55597 31.3007 10.0765 31.5058 10.5226C31.7207 10.9588 32.0039 11.3356 32.3555 11.6528C32.7071 11.9602 33.1174 12.213 33.5862 12.4113C34.0648 12.6096 34.5775 12.7632 35.1245 12.8723C35.6714 12.9814 36.2379 13.0607 36.824 13.1102C37.41 13.1499 37.9911 13.1697 38.5674 13.1697ZM38.5674 13.1846C38.5869 13.1846 38.5918 13.1846 38.582 13.1846C38.582 13.1747 38.5771 13.1697 38.5674 13.1697C38.5576 13.1697 38.5527 13.1747 38.5527 13.1846C38.5527 13.1846 38.5576 13.1846 38.5674 13.1846ZM38.5674 0.00849866C39.6124 -0.0113309 40.6624 0.00354009 41.7172 0.0531116C42.7819 0.102684 43.8025 0.226613 44.7792 0.424899C45.7657 0.623185 46.6887 0.915657 47.5482 1.30232C48.4077 1.68897 49.1549 2.21939 49.7897 2.89356C50.4246 3.55782 50.9227 4.38566 51.2841 5.37709C51.6552 6.36852 51.8359 7.5632 51.8261 8.96111C51.8359 10.3194 51.6552 11.4893 51.2841 12.4708C50.9227 13.4523 50.4246 14.2752 49.7897 14.9394C49.1549 15.6037 48.4077 16.1391 47.5482 16.5456C46.6887 16.9421 45.7657 17.2445 44.7792 17.4527C43.8025 17.6609 42.7819 17.7898 41.7172 17.8394C40.6624 17.8989 39.6124 17.9187 38.5674 17.8989C37.5321 17.9187 36.4821 17.8989 35.4175 17.8394C34.3529 17.7898 33.3273 17.6609 32.3409 17.4527C31.3642 17.2445 30.4461 16.9421 29.5866 16.5456C28.7368 16.1391 27.9896 15.6037 27.345 14.9394C26.7102 14.2752 26.212 13.4523 25.8507 12.4708C25.4893 11.4893 25.3086 10.3194 25.3086 8.96111C25.3086 7.5632 25.4893 6.36852 25.8507 5.37709C26.212 4.38566 26.7102 3.55782 27.345 2.89356C27.9896 2.21939 28.7368 1.68897 29.5866 1.30232C30.4461 0.915657 31.3642 0.623185 32.3409 0.424899C33.3273 0.226613 34.3529 0.102684 35.4175 0.0531116C36.4821 0.00354009 37.5321 -0.0113309 38.5674 0.00849866Z" fill="#1D1D1D"/>
<path d="M15.8959 8.90119L25.9755 17.6159H17.903L11.8523 12.396L5.80163 17.6159H0V0.186523H5.84558V10.5965L17.903 0.186523H25.9755L15.8959 8.90119Z" fill="#1D1D1D"/>
</svg>
