<svg width="40" height="40" viewBox="0 0 40 40" fill="none" xmlns="http://www.w3.org/2000/svg">
<path d="M8.33398 8.75C7.64363 8.75 7.08398 9.30964 7.08398 10C7.08398 10.6904 7.64363 11.25 8.33398 11.25H31.6673C32.3577 11.25 32.9173 10.6904 32.9173 10C32.9173 9.30964 32.3577 8.75 31.6673 8.75H8.33398Z" fill="#1D1D1D"/>
<path d="M8.33398 18.75C7.64363 18.75 7.08398 19.3096 7.08398 20C7.08398 20.6904 7.64363 21.25 8.33398 21.25H31.6673C32.3577 21.25 32.9173 20.6904 32.9173 20C32.9173 19.3096 32.3577 18.75 31.6673 18.75H8.33398Z" fill="#1D1D1D"/>
<path d="M8.33398 28.75C7.64363 28.75 7.08398 29.3096 7.08398 30C7.08398 30.6904 7.64363 31.25 8.33398 31.25H31.6673C32.3577 31.25 32.9173 30.6904 32.9173 30C32.9173 29.3096 32.3577 28.75 31.6673 28.75H8.33398Z" fill="#1D1D1D"/>
</svg>
