<svg width="68" height="68" viewBox="0 0 68 68" fill="none" xmlns="http://www.w3.org/2000/svg">
<g clip-path="url(#clip0_1219_11329)">
<path d="M34.0007 53.8337H39.6673V17.0004L57.7836 24.7637C58.2936 24.9823 58.7282 25.3459 59.0335 25.8093C59.3387 26.2727 59.5011 26.8155 59.5006 27.3704V53.8337H65.1673V59.5004H2.83398V53.8337H8.50065V16.0087C8.50058 15.4605 8.65955 14.9241 8.95828 14.4644C9.257 14.0047 9.68266 13.6416 10.1837 13.4191L32.0088 3.71772C32.2247 3.62179 32.4612 3.58139 32.6967 3.6002C32.9323 3.619 33.1593 3.69641 33.3573 3.82539C33.5553 3.95436 33.7178 4.13079 33.8302 4.33863C33.9426 4.54647 34.0012 4.77912 34.0007 5.01538V53.8337Z" fill="#DBF48C"/>
</g>
<defs>
<clipPath id="clip0_1219_11329">
<rect width="68" height="68" fill="white"/>
</clipPath>
</defs>
</svg>
