<svg width="60" height="60" viewBox="0 0 60 60" fill="none" xmlns="http://www.w3.org/2000/svg">
<circle cx="30" cy="30" r="30" fill="#1D1D1D"/>
<path d="M29.4967 29.8618C31.4271 29.8618 33.1784 29.0719 34.4321 27.8279C35.6859 26.5839 36.4819 24.8463 36.4819 22.9309C36.4819 21.0155 35.6859 19.2779 34.4321 18.0339C33.1784 16.7898 31.4271 16 29.4967 16C27.5663 16 25.8151 16.7898 24.5613 18.0339C23.3076 19.2581 22.5115 20.9958 22.5115 22.9309C22.5115 24.866 23.3076 26.5839 24.5613 27.8279C25.8151 29.0719 27.5862 29.8618 29.4967 29.8618ZM27.2678 20.6798C27.8449 20.1072 28.641 19.7518 29.5166 19.7518C30.4122 19.7518 31.1883 20.1072 31.7654 20.6798C32.3425 21.2525 32.7007 22.0423 32.7007 22.9111C32.7007 23.7997 32.3425 24.5698 31.7654 25.1425C31.1883 25.7151 30.3923 26.0705 29.5166 26.0705C28.6211 26.0705 27.8449 25.7151 27.2678 25.1425C26.6907 24.5698 26.3325 23.78 26.3325 22.9111C26.3325 22.0423 26.7106 21.2525 27.2678 20.6798Z" fill="white"/>
<path d="M38.9297 32.6657L36.8799 29.8815C36.7605 29.7236 36.5217 29.7038 36.3824 29.842C34.452 31.481 32.0639 32.5473 29.4967 32.5473C26.9295 32.5473 24.5613 31.481 22.611 29.842C22.4717 29.7236 22.2329 29.7433 22.1135 29.8815L20.0637 32.6657C19.9642 32.8039 19.9841 32.9817 20.1035 33.1001C21.8349 34.4824 23.8449 35.4302 25.9344 35.9238L21.5961 43.5063C21.4767 43.7236 21.6359 44 21.8747 44H26.1136C26.2529 44 26.3723 43.921 26.4121 43.7828L29.437 37.0691L32.4619 43.7828C32.5017 43.9013 32.6211 44 32.7604 44H36.9993C37.258 44 37.3973 43.7433 37.2779 43.5063L32.9395 35.9238C35.0291 35.4302 37.0391 34.5219 38.7705 33.1001C39.0292 32.9817 39.0491 32.8039 38.9297 32.6657Z" fill="white"/>
</svg>
