<svg width="68" height="68" viewBox="0 0 68 68" fill="none" xmlns="http://www.w3.org/2000/svg">
<g clip-path="url(#clip0_1219_11307)">
<path d="M5.66602 62.334C5.66602 56.3224 8.0541 50.5571 12.3049 46.3062C16.5558 42.0554 22.3211 39.6673 28.3327 39.6673C34.3443 39.6673 40.1096 42.0554 44.3604 46.3062C48.6113 50.5571 50.9993 56.3224 50.9993 62.334H5.66602ZM28.3327 36.834C18.9402 36.834 11.3327 29.2265 11.3327 19.834C11.3327 10.4415 18.9402 2.83398 28.3327 2.83398C37.7252 2.83398 45.3327 10.4415 45.3327 19.834C45.3327 29.2265 37.7252 36.834 28.3327 36.834ZM49.1945 43.1608C53.5285 44.2747 57.4006 46.7275 60.2596 50.17C63.1186 53.6125 64.8187 57.8691 65.1178 62.334H56.666C56.666 54.939 53.8327 48.207 49.1945 43.1608ZM43.4627 36.7122C45.837 34.5885 47.7358 31.9871 49.0346 29.0784C50.3334 26.1698 51.003 23.0195 50.9993 19.834C51.0054 15.9621 50.015 12.1539 48.1235 8.77548C51.3326 9.42032 54.2195 11.1565 56.2933 13.689C58.3671 16.2215 59.5 19.394 59.4993 22.6673C59.5001 24.686 59.0694 26.6815 58.236 28.5201C57.4026 30.3587 56.1859 31.9979 54.6673 33.3279C53.1487 34.6578 51.3633 35.6478 49.4309 36.2315C47.4985 36.8152 45.4636 36.9791 43.4627 36.7122Z" fill="#DBF48C"/>
</g>
<defs>
<clipPath id="clip0_1219_11307">
<rect width="68" height="68" fill="white"/>
</clipPath>
</defs>
</svg>
