<svg width="72" height="72" viewBox="0 0 72 72" fill="none" xmlns="http://www.w3.org/2000/svg">
<g clip-path="url(#clip0_1219_11300)">
<path fill-rule="evenodd" clip-rule="evenodd" d="M8 72H64C68.4183 72 72 68.4183 72 64V8C72 3.58172 68.4183 0 64 0H8C3.58172 0 0 3.58172 0 8V64C0 68.4183 3.58172 72 8 72Z" fill="#DBF48C"/>
<path fill-rule="evenodd" clip-rule="evenodd" d="M40.9274 45.0723C40.9274 43.45 42.0178 41.787 42.8574 40.9521C44.7968 39.0243 47.8034 38.3577 50.0493 39.6909C50.7937 40.1334 51.1815 40.4051 51.7738 40.9916C53.8595 43.0563 53.6644 44.9074 53.6644 47.381C53.6644 47.7526 53.4786 47.9384 53.107 47.9384H41.4848C41.1132 47.9384 40.9274 47.7526 40.9274 47.381V45.0723ZM28.1903 33.6081V34.2456C28.1903 36.6495 30.5628 39.022 32.9667 39.022H33.6031C36.0081 39.022 38.3795 36.6495 38.3795 34.2456V33.6081C38.3795 31.2054 36.0081 28.8328 33.6031 28.8328H32.9667C30.5628 28.8328 28.1903 31.2054 28.1903 33.6081ZM28.1903 46.2661C28.1903 47.2335 28.0196 47.9384 28.7477 47.9384H37.8232C38.5502 47.9384 38.3795 47.2335 38.3795 46.2661C38.3795 43.3374 36.468 40.2959 33.6031 40.2959H32.9667C30.1088 40.2959 28.1903 43.3408 28.1903 46.2661ZM18 36.1559C18 34.9157 18.9523 33.5953 20.1205 33.0228C21.557 32.319 23.4116 32.6036 24.5508 33.7451C25.4659 34.659 25.6425 35.6078 25.6425 36.7935C25.6425 39.6828 21.5501 41.6628 19.0916 39.2043C18.1788 38.2904 18 37.3416 18 36.1559ZM18 45.2314V47.381C18 47.7526 18.1858 47.9384 18.5574 47.9384H25.085C25.4566 47.9384 25.6425 47.7526 25.6425 47.381C25.6425 45.5775 25.8828 44.1677 24.5102 42.7811C23.4337 41.6953 22.9564 41.5687 21.5025 41.5687C19.6978 41.5687 18 43.7531 18 45.2314ZM40.9274 31.0614C40.9274 33.1563 41.4708 34.5917 42.7785 35.8981C45.259 38.3798 49.3328 38.3798 51.8145 35.8981C54.2961 33.4165 54.2961 29.3438 51.8145 26.8621C49.3351 24.3828 45.2636 24.3758 42.7785 26.8621C41.8924 27.7482 40.9274 29.3275 40.9274 31.0614Z" fill="#1D1D1D"/>
</g>
<defs>
<clipPath id="clip0_1219_11300">
<rect width="72" height="72" rx="36" fill="white"/>
</clipPath>
</defs>
</svg>
