<svg width="68" height="68" viewBox="0 0 68 68" fill="none" xmlns="http://www.w3.org/2000/svg">
<path d="M5.66602 17.5669C5.66602 9.06685 9.06601 5.66699 17.566 5.66699H27.766C36.266 5.66699 39.666 9.06685 39.666 17.5669V28.3337C31.761 28.4753 28.4743 31.762 28.3327 39.667H17.566C9.06601 39.667 5.66602 36.267 5.66602 27.7671" stroke="#DBF48C" stroke-width="4" stroke-linecap="round" stroke-linejoin="round"/>
<path d="M19.7171 16.6311C18.2155 15.6111 16.2321 15.6111 14.7305 16.6878" stroke="#DBF48C" stroke-width="4" stroke-miterlimit="10" stroke-linecap="round" stroke-linejoin="round"/>
<path d="M31.0511 16.6311C29.5494 15.6111 27.5661 15.6111 26.0645 16.6878" stroke="#DBF48C" stroke-width="4" stroke-miterlimit="10" stroke-linecap="round" stroke-linejoin="round"/>
<path d="M23.1229 32.3566H16.5495C15.6995 32.3566 15.0195 31.6766 15.0195 30.8266C15.0195 26.605 18.4479 23.1768 22.6695 23.1768C24.4829 23.1768 26.1545 23.8 27.4579 24.8483" stroke="#DBF48C" stroke-width="4" stroke-miterlimit="10" stroke-linecap="round" stroke-linejoin="round"/>
<path d="M62.334 50.433C62.334 58.933 58.934 62.333 50.434 62.333H40.234C31.734 62.333 28.334 58.933 28.334 50.433V39.6663C28.4757 31.7613 31.7623 28.4747 39.6673 28.333H50.434C58.934 28.333 62.334 31.733 62.334 40.233" stroke="#DBF48C" stroke-width="4" stroke-linecap="round" stroke-linejoin="round"/>
<path d="M42.3851 38.5899C40.8834 39.6099 38.9001 39.6099 37.3984 38.5332" stroke="#DBF48C" stroke-width="4" stroke-miterlimit="10" stroke-linecap="round" stroke-linejoin="round"/>
<path d="M53.7171 38.5899C52.2155 39.6099 50.2321 39.6099 48.7305 38.5332" stroke="#DBF48C" stroke-width="4" stroke-miterlimit="10" stroke-linecap="round" stroke-linejoin="round"/>
<path d="M39.2155 45.8438H51.4555C52.3055 45.8438 52.9855 46.5235 52.9855 47.3735C52.9855 51.5951 49.5572 55.0235 45.3355 55.0235C41.1139 55.0235 37.6855 51.5951 37.6855 47.3735C37.6855 46.5235 38.3655 45.8438 39.2155 45.8438Z" stroke="#DBF48C" stroke-width="4" stroke-miterlimit="10" stroke-linecap="round" stroke-linejoin="round"/>
</svg>
