<svg width="68" height="68" viewBox="0 0 68 68" fill="none" xmlns="http://www.w3.org/2000/svg">
<path d="M33.9992 11.333C28.9558 11.333 24.0256 12.8286 19.8322 15.6305C15.6387 18.4325 12.3703 22.4151 10.4403 27.0746C8.51026 31.7341 8.00527 36.8613 8.98919 41.8078C9.97312 46.7543 12.4018 51.298 15.968 54.8642C19.5342 58.4305 24.0779 60.8591 29.0244 61.843C33.9709 62.827 39.0981 62.322 43.7576 60.3919C48.4172 58.4619 52.3997 55.1935 55.2017 51C58.0037 46.8066 59.4992 41.8764 59.4992 36.833C59.4992 30.07 56.8126 23.584 52.0304 18.8018C47.2483 14.0196 40.7622 11.333 33.9992 11.333ZM33.9992 56.6663C30.0766 56.6663 26.242 55.5031 22.9804 53.3238C19.7188 51.1445 17.1767 48.047 15.6756 44.4229C14.1745 40.7988 13.7817 36.811 14.547 32.9637C15.3123 29.1164 17.2012 25.5825 19.9749 22.8087C22.7487 20.035 26.2826 18.146 30.1299 17.3808C33.9772 16.6155 37.965 17.0083 41.5891 18.5094C45.2132 20.0105 48.3107 22.5526 50.49 25.8142C52.6693 29.0758 53.8326 32.9103 53.8326 36.833C53.8326 42.0931 51.743 47.1378 48.0235 50.8573C44.304 54.5768 39.2593 56.6663 33.9992 56.6663ZM60.0376 10.7947C56.6939 7.40258 52.7186 4.69784 48.3359 2.83301L46.1259 8.04634C49.8294 9.61913 53.1961 11.8892 56.0426 14.733C58.1222 16.832 59.9049 19.2056 61.3409 21.788L66.2992 18.9547C64.5981 15.9591 62.4909 13.2131 60.0376 10.7947ZM21.8726 7.96134L19.6626 2.83301C15.2798 4.69784 11.3045 7.40258 7.96089 10.7947C5.497 13.2566 3.38938 16.0508 1.69922 19.0963L6.65755 21.9297C8.087 19.3174 9.86991 16.9148 11.9559 14.7897C14.8024 11.9459 18.169 9.6758 21.8726 8.10301V7.96134ZM31.7042 39.8363L24.3659 32.6397L20.9659 36.0397L31.7042 46.778L47.0326 31.4497L43.6325 28.0497L31.7042 39.8363Z" fill="#DBF48C"/>
</svg>
