<svg width="60" height="60" viewBox="0 0 60 60" fill="none" xmlns="http://www.w3.org/2000/svg">
<circle cx="30" cy="30" r="30" fill="#FF5722"/>
<path d="M16.9393 41.6884C16.3536 42.2741 16.3536 43.2239 16.9393 43.8097C17.5251 44.3955 18.4749 44.3955 19.0607 43.8097L18 42.749L16.9393 41.6884ZM44.2487 18.0003C44.2487 17.1719 43.5772 16.5003 42.7487 16.5003L29.2487 16.5003C28.4203 16.5003 27.7487 17.1719 27.7487 18.0003C27.7487 18.8287 28.4203 19.5003 29.2487 19.5003L41.2487 19.5003L41.2487 31.5003C41.2487 32.3287 41.9203 33.0003 42.7487 33.0003C43.5772 33.0003 44.2487 32.3287 44.2487 31.5003L44.2487 18.0003ZM18 42.749L19.0607 43.8097L43.8094 19.0609L42.7487 18.0003L41.6881 16.9396L16.9393 41.6884L18 42.749Z" fill="#1D1D1D"/>
</svg>
