<svg width="68" height="68" viewBox="0 0 68 68" fill="none" xmlns="http://www.w3.org/2000/svg">
<g clip-path="url(#clip0_1219_11261)">
<path fill-rule="evenodd" clip-rule="evenodd" d="M54.3991 47.6002V30.6002C54.3991 20.1622 48.8231 11.4242 39.0991 9.1122V6.8002C39.0991 3.9782 36.7871 1.7002 33.9651 1.7002C31.1431 1.7002 28.8991 3.9782 28.8991 6.8002V9.1122C19.1411 11.4242 13.5991 20.1282 13.5991 30.6002V47.6002L9.17914 51.9862C7.03714 54.1282 8.53314 57.8002 11.5591 57.8002H56.3371C59.3631 57.8002 60.8931 54.1282 58.7511 51.9862L54.3991 47.6002ZM33.9651 68.0002C37.7051 68.0002 40.7651 64.9402 40.7651 61.2002H27.1651C27.1651 64.9402 30.1911 68.0002 33.9651 68.0002ZM16.2171 9.2822C17.6451 7.9902 17.6791 5.7802 16.3191 4.4202C15.0271 3.1282 12.9191 3.0942 11.5931 4.3522C5.77914 9.6562 1.76714 16.8642 0.475141 24.9562C0.169141 27.0302 1.76714 28.9002 3.87514 28.9002C5.50714 28.9002 6.93514 27.7102 7.20714 26.0782C8.22714 19.4822 11.4911 13.6002 16.2171 9.2822ZM56.4391 4.3522C55.0791 3.0942 52.9711 3.1282 51.6791 4.4202C50.3191 5.7802 50.3871 7.95619 51.7811 9.24819C56.4731 13.5662 59.7711 19.4482 60.7911 26.0442C61.0291 27.6762 62.4571 28.8662 64.1231 28.8662C66.1971 28.8662 67.8291 26.9962 67.4891 24.9222C66.1971 16.8642 62.2191 9.6902 56.4391 4.3522Z" fill="#DBF48C"/>
</g>
<defs>
<clipPath id="clip0_1219_11261">
<rect width="68" height="68" fill="white"/>
</clipPath>
</defs>
</svg>
