<svg width="68" height="68" viewBox="0 0 68 68" fill="none" xmlns="http://www.w3.org/2000/svg">
<path d="M33.9994 56.666C21.5327 56.666 11.3327 46.466 11.3327 33.9994C11.3327 21.5327 21.5327 11.3327 33.9994 11.3327C46.466 11.3327 56.666 21.5327 56.666 33.9994C56.666 46.466 46.466 56.666 33.9994 56.666ZM33.9994 5.66602C18.416 5.66602 5.66602 18.416 5.66602 33.9994C5.66602 49.5827 18.416 62.3327 33.9994 62.3327C49.5827 62.3327 62.3327 49.5827 62.3327 33.9994C62.3327 18.416 49.5827 5.66602 33.9994 5.66602ZM31.166 39.666H36.8327V48.166H45.3327V33.9994H50.9994L33.9994 19.8327L16.9993 33.9994H22.666V48.166H31.166V39.666Z" fill="#DBF48C"/>
</svg>
