<svg width="68" height="69" viewBox="0 0 68 69" fill="none" xmlns="http://www.w3.org/2000/svg">
<path fill-rule="evenodd" clip-rule="evenodd" d="M13.34 44.3894C16.7918 46.842 20.7459 48.0237 24.6627 48.0309C26.009 51.7632 28.4557 55.1292 31.9075 57.5819C40.8801 63.9569 53.2471 61.7443 59.53 52.6395C65.8126 43.5349 63.6321 30.9861 54.6592 24.6109C51.2076 22.1584 47.2534 20.9769 43.3366 20.9697C41.9902 17.2374 39.5436 13.8712 36.0918 11.4186C27.1191 5.04349 14.7521 7.2562 8.46937 16.3608C2.18662 25.4655 4.36727 38.0144 13.34 44.3894ZM16.5902 39.6793C18.7042 41.1815 21.082 42.0161 23.4805 42.2268C23.2362 37.8712 24.3795 33.404 27.0369 29.5532C29.6941 25.7022 33.4401 23.0842 37.5572 21.8275C36.5417 19.6125 34.9556 17.6308 32.8417 16.1288C26.4325 11.5751 17.5989 13.1556 13.1112 19.6589C8.62356 26.1622 10.1812 35.1258 16.5902 39.6793ZM51.4091 29.3209C49.2951 27.8191 46.9174 26.9844 44.5187 26.7737C44.7632 31.1293 43.6197 35.5965 40.9623 39.4473C38.3049 43.2983 34.5592 45.9163 30.4421 47.173C31.4576 49.3879 33.0437 51.3696 35.1576 52.8718C41.5666 57.4252 50.4004 55.8448 54.8881 49.3416C59.3756 42.8383 57.8181 33.8746 51.4091 29.3209Z" fill="#DBF48C"/>
</svg>
