<svg width="68" height="68" viewBox="0 0 68 68" fill="none" xmlns="http://www.w3.org/2000/svg">
<g clip-path="url(#clip0_1219_11254)">
<path d="M27.4756 14.7012C12.3006 14.7012 0 24.1612 0 35.8363C0 41.5596 2.96314 46.7631 7.77348 50.5674C7.4945 54.4478 6.56033 59.1947 3.85504 61.7521C9.24026 61.7521 14.7438 58.3789 18.2227 55.7413C21.1139 56.5359 24.225 56.9713 27.4756 56.9713C42.6506 56.9713 54.9512 47.5155 54.9512 35.8363C54.9512 24.1612 42.6506 14.7012 27.4756 14.7012Z" fill="#DBF48C"/>
<path d="M63.997 37.8947C66.3092 34.8048 67.6323 31.2118 67.6323 27.3822C67.6323 15.7071 55.3317 6.24707 40.1567 6.24707C33.478 6.24707 27.3573 8.08159 22.5977 11.125C24.838 10.7023 27.1797 10.4741 29.5891 10.4741C45.9308 10.4741 59.1782 20.8852 59.1782 33.7227C59.1782 38.7824 57.1281 43.4702 53.6324 47.2787C57.1028 49.9164 62.6148 53.298 68 53.298C64.1703 49.6628 63.8956 41.6061 63.997 37.8947Z" fill="#DBF48C"/>
</g>
<defs>
<clipPath id="clip0_1219_11254">
<rect width="68" height="68" fill="white"/>
</clipPath>
</defs>
</svg>
